<svg class="svg-icon" style="width: 1em; height: 1em;vertical-align: middle;fill: currentColor;overflow: hidden;" viewBox="0 0 1024 1024" version="1.1" xmlns="http://www.w3.org/2000/svg"><path d="M384 768a112 112 0 1 0 112 112A112 112 0 0 0 384 768z m416 0a112 112 0 1 0 112 112A112 112 0 0 0 800 768z m162.88-519.36A64 64 0 0 0 915.2 224L299.84 192 239.68 132.48A96 96 0 1 0 149.44 224l64 64 87.68 366.4A64 64 0 0 0 363.52 704h8.32l484.48-64a64 64 0 0 0 54.08-49.6l64-288a64 64 0 0 0-11.52-53.76zM736 463.68a32 32 0 0 1-32 32h-64v64a32 32 0 0 1-32 32h-32a32 32 0 0 1-32-32v-64h-64a32 32 0 0 1-32-32v-32a32 32 0 0 1 32-32h64v-64a32 32 0 0 1 32-32h32a32 32 0 0 1 32 32v64h64a32 32 0 0 1 32 32z" fill="#231F20" /></svg>